<?xml version="1.0" encoding="UTF-8" standalone="no"?>
<svg
   xmlns:dc="http://purl.org/dc/elements/1.1/"
   xmlns:cc="http://creativecommons.org/ns#"
   xmlns:rdf="http://www.w3.org/1999/02/22-rdf-syntax-ns#"
   xmlns:svg="http://www.w3.org/2000/svg"
   xmlns="http://www.w3.org/2000/svg"
   xmlns:sodipodi="http://sodipodi.sourceforge.net/DTD/sodipodi-0.dtd"
   xmlns:inkscape="http://www.inkscape.org/namespaces/inkscape"
   width="24"
   height="24"
   viewBox="0 0 24 24"
   version="1.1"
   id="svg6"
   sodipodi:docname="free-camera.svg"
   inkscape:version="0.92.3 (2405546, 2018-03-11)">
  <metadata
     id="metadata12">
    <rdf:RDF>
      <cc:Work
         rdf:about="">
        <dc:format>image/svg+xml</dc:format>
        <dc:type
           rdf:resource="http://purl.org/dc/dcmitype/StillImage" />
      </cc:Work>
    </rdf:RDF>
  </metadata>
  <defs
     id="defs10" />
  <sodipodi:namedview
     pagecolor="#ffffff"
     bordercolor="#666666"
     borderopacity="1"
     objecttolerance="10"
     gridtolerance="10"
     guidetolerance="10"
     inkscape:pageopacity="0"
     inkscape:pageshadow="2"
     inkscape:window-width="1920"
     inkscape:window-height="1016"
     id="namedview8"
     showgrid="false"
     inkscape:zoom="9.8333333"
     inkscape:cx="-46.940092"
     inkscape:cy="5.5223749"
     inkscape:window-x="1600"
     inkscape:window-y="27"
     inkscape:window-maximized="1"
     inkscape:current-layer="svg6" />
  <path
     style="fill:#ffffff;stroke-width:0.06179355;fill-opacity:1"
     d="m 9.8868161,19.016625 c -0.162995,-0.09482 -0.238445,-0.335816 -0.159434,-0.509232 0.04022,-0.0883 0.3351859,-0.299289 0.7555409,-0.540448 l 0.689532,-0.395602 -0.648829,-0.04291 C 10.166763,17.504852 9.3464561,17.456997 8.7007151,17.422125 7.2834663,17.345597 5.8098928,17.165606 4.5605489,16.916401 1.9220484,16.390104 0.58590017,15.697764 0.36413987,14.74197 c -0.1437418,-0.619517 0.5421642,-1.337841 1.72466363,-1.806195 0.5658838,-0.224126 1.6084709,-0.524196 1.8213166,-0.524196 0.2147488,0 0.3723559,0.174555 0.3723559,0.412399 0,0.262678 -0.1421891,0.362161 -0.7325514,0.512531 -1.2670561,0.322732 -2.3571291,0.896935 -2.3571291,1.241637 0,0.27889 0.6029431,0.677201 1.5207733,1.004652 0.9529221,0.339973 2.6238239,0.679198 4.3187198,0.87679 0.7827694,0.09125 4.2914744,0.301314 4.3333614,0.259433 0.01156,-0.01156 -0.341258,-0.266608 -0.784019,-0.566784 -0.442767,-0.300181 -0.8339559,-0.599848 -0.8693279,-0.665929 -0.139358,-0.260407 0.157204,-0.65918 0.4360129,-0.586269 0.06535,0.01711 0.761268,0.470491 1.546488,1.007565 1.481718,1.013467 1.576619,1.106618 1.437787,1.411317 -0.06861,0.150573 -2.848952,1.767918 -3.033291,1.764484 -0.05552,-0.0012 -0.1511209,-0.03106 -0.2124839,-0.06678 z m 5.3792049,-1.677008 c -0.05563,-0.0425 -0.119203,-0.152312 -0.141312,-0.244067 -0.03118,-0.129363 -0.0047,-0.202209 0.117394,-0.324415 0.08668,-0.08668 0.210576,-0.157595 0.275337,-0.157595 0.278078,0 2.084525,-0.199396 2.813462,-0.310549 2.069862,-0.315629 3.822203,-0.861536 4.403318,-1.371761 0.524306,-0.460345 0.07673,-0.88021 -1.591167,-1.492652 -0.362613,-0.133157 -0.496605,-0.380972 -0.33737,-0.623994 0.163667,-0.249783 0.360067,-0.256811 0.955136,-0.03415 1.363242,0.510056 2.000885,1.081747 2.000885,1.793943 0,1.175399 -1.946418,2.069207 -5.637476,2.588761 -1.866345,0.262707 -2.679599,0.312932 -2.858207,0.176499 z M 6.2373063,13.828349 6.074486,13.700276 V 9.7308872 c 0,-3.3292463 0.014128,-3.9887354 0.08765,-4.0893406 0.0829,-0.1134545 0.1991215,-0.1216164 2.1473261,-0.1508409 l 2.0596799,-0.03088 0.13516,-0.515595 c 0.07821,-0.2983838 0.182353,-0.5513768 0.247173,-0.6005261 0.08716,-0.066079 0.422024,-0.085362 1.509488,-0.086887 1.66044,-0.00237 1.597582,-0.026859 1.877705,0.7317216 l 0.185262,0.5016492 2.102675,2.457e-4 c 1.802787,2.505e-4 2.122269,0.014015 2.24002,0.096464 l 0.137332,0.096187 v 4.0130747 c 0,3.9306882 -0.0024,4.0156202 -0.123583,4.1366692 -0.121914,0.121908 -0.20598,0.123583 -6.201919,0.123583 -6.0557181,0 -6.0789415,-4.95e-4 -6.2411488,-0.128072 z m 11.7484227,-4.120236 -0.016,-3.3831938 -2.100977,-0.03299 c -1.155541,-0.018154 -2.105485,-0.038992 -2.110991,-0.046351 -0.0052,-0.00733 -0.11402,-0.2643181 -0.241147,-0.5710093 l -0.23113,-0.5576273 -0.99094,0.016931 -0.99095,0.01693 -0.116502,0.4634507 c -0.183674,0.7306956 -0.0012,0.6755039 -2.2943769,0.6943362 l -1.9840316,0.016292 -0.015996,3.3831956 -0.015996,3.3831939 h 5.5624765 5.562476 z m -5.996663,2.641315 C 11.273107,12.223983 10.510006,11.689005 10.135641,11.050077 9.5189731,9.9976004 9.7475761,8.5723934 10.666228,7.7421792 c 1.035396,-0.9357119 2.581692,-0.9188515 3.594681,0.039173 0.627982,0.5939233 0.863269,1.1806314 0.824803,2.0567257 -0.02067,0.4711001 -0.05674,0.6333361 -0.21646,0.9744761 -0.521428,1.113588 -1.701662,1.743351 -2.880186,1.536857 z m 1.084557,-0.900287 c 0.375817,-0.128055 0.814124,-0.520961 1.020309,-0.914643 0.13969,-0.266706 0.165809,-0.394475 0.165809,-0.8109373 0,-0.4150844 -0.02628,-0.5445169 -0.163929,-0.8072362 C 13.91978,8.5803572 13.561108,8.2204006 13.230786,8.048199 13.111295,7.9859082 12.829899,7.9299281 12.553974,7.9135579 12.146399,7.8893929 12.035946,7.9065179 11.747842,8.0383792 11.10408,8.3331025 10.779561,8.747608 10.64753,9.4438001 c -0.08031,0.4234505 0.0408,0.9409729 0.312716,1.3361609 0.447414,0.650294 1.33965,0.93281 2.113377,0.66918 z"
     id="path837"
     inkscape:connector-curvature="0" />
</svg>
