<?xml version="1.0" encoding="UTF-8" standalone="no"?>
<!-- Created with Inkscape (http://www.inkscape.org/) -->

<svg
   xmlns:dc="http://purl.org/dc/elements/1.1/"
   xmlns:cc="http://creativecommons.org/ns#"
   xmlns:rdf="http://www.w3.org/1999/02/22-rdf-syntax-ns#"
   xmlns:svg="http://www.w3.org/2000/svg"
   xmlns="http://www.w3.org/2000/svg"
   xmlns:sodipodi="http://sodipodi.sourceforge.net/DTD/sodipodi-0.dtd"
   xmlns:inkscape="http://www.inkscape.org/namespaces/inkscape"
   width="80mm"
   height="80mm"
   viewBox="0 0 80 80"
   version="1.1"
   id="svg893"
   inkscape:version="0.92.3 (2405546, 2018-03-11)"
   sodipodi:docname="unit.svg">
  <defs
     id="defs887" />
  <sodipodi:namedview
     id="base"
     pagecolor="#ffffff"
     bordercolor="#666666"
     borderopacity="1.0"
     inkscape:pageopacity="0.0"
     inkscape:pageshadow="2"
     inkscape:zoom="2.8"
     inkscape:cx="41.559308"
     inkscape:cy="190.2481"
     inkscape:document-units="mm"
     inkscape:current-layer="layer1"
     showgrid="false"
     inkscape:window-width="1920"
     inkscape:window-height="1016"
     inkscape:window-x="1600"
     inkscape:window-y="27"
     inkscape:window-maximized="1" />
  <metadata
     id="metadata890">
    <rdf:RDF>
      <cc:Work
         rdf:about="">
        <dc:format>image/svg+xml</dc:format>
        <dc:type
           rdf:resource="http://purl.org/dc/dcmitype/StillImage" />
        <dc:title></dc:title>
      </cc:Work>
    </rdf:RDF>
  </metadata>
  <g
     inkscape:label="Calque 1"
     inkscape:groupmode="layer"
     id="layer1"
     transform="translate(0,-217)">
    <path
       style="fill:#49514d;fill-opacity:1;stroke:none;stroke-width:1;stroke-linecap:butt;stroke-linejoin:miter;stroke-miterlimit:4;stroke-dasharray:none;stroke-opacity:0.98648652"
       d="m 13.068408,228.29817 47.419982,-1.48944 5.12765,4.50967 -1.210238,41.72401 -2.909077,0.84434 -0.690094,7.01146 -16.243239,1.33406 -1.443336,-2.80983 -1.334789,-4.60965 -7.323124,0.33106 0.179374,1.76138 v 12.36474 l -11.324651,0.92633 -6.740086,0.3227 c -0.649395,-6.18171 -1.491434,-12.80651 -0.422543,-15.03616 l -2.439778,-6.62317 z"
       id="rect908"
       inkscape:connector-curvature="0"
       sodipodi:nodetypes="ccccccccccccccccc" />
    <ellipse
       style="fill:#f8a13a;fill-opacity:1;stroke:none;stroke-width:1.09634411;stroke-linecap:butt;stroke-linejoin:miter;stroke-miterlimit:4;stroke-dasharray:none;stroke-opacity:0.98648652"
       id="path952"
       cx="28.18285"
       cy="243.65811"
       rx="5.59304"
       ry="5.7641368" />
    <ellipse
       style="fill:#f8a13a;fill-opacity:1;stroke:none;stroke-width:1.09634411;stroke-linecap:butt;stroke-linejoin:miter;stroke-miterlimit:4;stroke-dasharray:none;stroke-opacity:0.98648652"
       id="path952-3"
       cx="53.530876"
       cy="242.8549"
       rx="5.5798731"
       ry="5.7641368" />
    <path
       style="fill:#000000;stroke-width:0.26458332"
       d="m 16.57678,290.51903 c -0.08268,-0.13378 -0.397723,-1.21217 -0.70009,-2.39643 -0.472496,-1.85058 -0.550836,-2.96502 -0.557439,-7.92993 -0.0075,-5.62499 -0.02866,-5.84973 -0.806237,-8.55488 l -0.798555,-2.77812 -0.438642,-20.29661 c -0.241253,-11.16314 -0.373368,-20.36189 -0.293589,-20.44167 0.07978,-0.0798 10.801303,-0.40776 23.825607,-0.72886 l 23.680555,-0.5838 2.674612,1.97547 c 1.471038,1.08651 2.738618,2.13121 2.816858,2.32155 0.20436,0.49721 -1.15471,42.20463 -1.38263,42.43024 -0.10455,0.10348 -0.84493,0.22474 -1.645296,0.26946 l -1.455209,0.0813 -0.132291,3.70417 c -0.123479,3.45739 -0.167545,3.70821 -0.661459,3.76483 -0.291041,0.0334 -4.04151,0.24423 -8.334375,0.46859 l -7.805208,0.40793 -0.492937,-0.60088 c -1.141527,-1.39151 -2.285188,-4.13861 -2.285188,-5.48908 v -1.32952 h -2.077855 c -1.14282,0 -2.790523,0.0745 -3.661561,0.16553 l -1.583708,0.16553 0.342656,0.95895 c 0.375751,1.05156 0.519915,12.88983 0.163396,13.41747 -0.120647,0.17856 -2.653389,0.40888 -6.676678,0.60717 -3.56526,0.17572 -7.625767,0.39044 -9.023348,0.47716 -1.448721,0.0899 -2.605681,0.0531 -2.691389,-0.0856 z m 11.913174,-0.93062 6.151563,-0.31844 v -6.18237 -6.18237 l -2.579687,0.15253 c -4.733333,0.27987 -12.883041,0.66201 -14.155209,0.66374 l -1.256771,0.002 0.0016,4.0349 c 8.73e-4,2.21919 0.07931,5.03347 0.174303,6.25396 l 0.172717,2.21906 2.669968,-0.16214 c 1.46848,-0.0892 5.438169,-0.30545 8.821528,-0.48058 z M 16.136096,277.98346 c -0.230614,-1.27411 -0.247717,-1.12853 -0.140379,1.19496 0.06723,1.45521 0.149173,3.83646 0.182104,5.29166 0.048,2.12092 0.07585,1.88384 0.140379,-1.19496 0.04428,-2.11243 -0.03767,-4.49368 -0.182104,-5.29166 z m 38.349171,3.17083 c 2.692135,-0.14068 5.215771,-0.25584 5.608077,-0.25593 l 0.713287,-1.5e-4 0.08046,-3.57232 c 0.04426,-1.96478 0.02093,-3.56953 -0.05183,-3.56612 -0.07276,0.003 -3.585104,0.18013 -7.805208,0.3927 -4.220104,0.21257 -7.805621,0.38857 -7.967814,0.39112 -0.331311,0.005 -0.790895,6.41125 -0.494376,6.89103 0.117263,0.18974 0.990364,0.23359 2.599587,0.13057 1.332661,-0.0853 4.625676,-0.27022 7.317811,-0.4109 z m -10.31875,-3.56337 v -2.77813 h -0.79375 c -0.780846,0 -0.79375,0.0225 -0.79375,1.38487 0,0.99677 0.203906,1.77514 0.727604,2.7775 0.400182,0.76594 0.75737,1.39291 0.79375,1.39325 0.03638,2.7e-4 0.06615,-1.24952 0.06615,-2.77749 z m -18.25625,-0.52917 c 4.147344,-0.21331 7.74279,-0.38987 7.989882,-0.39236 0.384024,-0.004 0.40908,-0.11977 0.172556,-0.79826 -0.267639,-0.76775 -0.330023,-0.79341 -1.904468,-0.78319 -1.294575,0.008 -15.748952,0.70207 -15.973104,0.76655 -0.03181,0.009 -0.002,0.19523 0.06615,0.41351 0.443706,1.42027 -0.701107,1.32609 9.648988,0.79375 z m 1.322917,-2.11155 c 1.540096,-0.077 3.959942,-0.1963 6.818792,-0.33649 2.85885,-0.1402 6.156704,-0.30125 9.452819,-0.46159 0.986238,-0.048 1.972318,-0.0959 2.946437,-0.14316 0.974118,-0.0473 1.936273,-0.0939 2.87466,-0.13932 4.074583,-0.19719 7.785898,-0.38199 10.482935,-0.52088 2.697038,-0.13889 4.379798,-0.23187 4.397273,-0.24541 0.0846,-0.0655 1.40314,-41.76551 1.32228,-41.81679 -0.0346,-0.0219 -11.36827,0.26725 -25.185941,0.64265 l -25.123035,0.68254 0.0511,2.51355 c 0.02811,1.38244 0.175601,10.19307 0.327766,19.57916 0.152164,9.3861 0.339506,17.90099 0.416315,18.922 l 0.139652,1.85638 1.901451,-0.0846 c 1.045798,-0.0465 5.17567,-0.24815 9.177493,-0.44808 l 1e-6,2e-5 z m -1.484472,-25.93249 c -2.079294,-1.03616 -3.266167,-3.12761 -3.274178,-5.76962 -0.009,-2.97726 2.65634,-5.5607 5.70875,-5.53327 1.711734,0.0154 3.101964,0.70407 4.514305,2.23627 4.387363,4.75973 -1.134282,11.96415 -6.948877,9.06662 z m 5.154486,-0.38124 c 2.087139,-1.06478 3.343293,-3.78425 2.727126,-5.904 -0.179839,-0.61869 -0.360203,-1.27308 -0.400809,-1.45422 -0.109484,-0.4884 -1.51815,-1.89023 -2.078008,-2.06792 -0.267534,-0.0849 -0.42957,-0.24637 -0.360082,-0.35881 0.06949,-0.11243 -0.732456,-0.18666 -1.782096,-0.16494 -2.248455,0.0465 -3.696825,0.67972 -4.768454,2.0847 -0.890817,1.16792 -1.373756,2.95625 -1.13788,4.21358 0.231931,1.23629 1.606161,3.03714 2.803144,3.67335 1.251036,0.66493 3.671706,0.6544 4.997059,-0.0217 z m -6.083427,-8.94816 c 0.934076,-0.74113 1.965629,-1.15409 3.412536,-1.36613 l 1.514418,-0.22194 -1.564254,-0.0323 c -2.365278,-0.0488 -4.430116,1.34542 -5.046278,3.40732 -0.145474,0.48681 -0.0059,0.38315 0.528437,-0.39256 0.399356,-0.5797 0.91917,-1.2072 1.155141,-1.39442 z m 26.622788,8.67485 c -1.395505,-0.67095 -1.708436,-0.95851 -2.71416,-2.49413 -1.382916,-2.11154 -1.444736,-3.97874 -0.202406,-6.11353 1.624269,-2.7911 5.131483,-3.59222 7.989845,-1.82503 3.556966,2.19911 4.038185,6.64675 1.007766,9.31423 -1.87603,1.65135 -4.115866,2.06332 -6.081045,1.11846 z m 4.983644,-0.7756 c 2.024819,-1.25141 3.06996,-4.1531 2.3173,-6.43368 -0.461994,-1.39986 -1.858375,-2.75693 -3.211777,-3.12137 -3.967017,-1.0682 -7.777771,2.68955 -6.74909,6.65523 0.392637,1.51365 1.106086,2.36643 2.631416,3.14531 1.365885,0.69746 3.668938,0.58466 5.012151,-0.24549 z m -8.026353,-5.39901 c 0,-0.93025 1.401006,-2.93609 2.544271,-3.64266 0.561522,-0.34704 1.677291,-0.77242 2.479487,-0.94528 l 1.458534,-0.3143 -1.399603,-0.0222 c -2.808963,-0.0445 -4.783315,1.69255 -5.463099,4.80647 -0.09205,0.42166 -0.04547,0.72761 0.110787,0.72761 0.148293,0 0.269623,-0.27435 0.269623,-0.60966 z m -33.190878,10.32808 -0.412782,-19.97288 -0.663439,-1.42121 -0.663439,-1.4212 0.135283,4.49791 c 0.0744,2.47386 0.25963,11.10589 0.411611,19.1823 0.256946,13.65431 0.316618,14.84585 0.850678,16.98642 0.315892,1.26613 0.614967,2.26143 0.66461,2.21179 0.04964,-0.0496 -0.09549,-9.07805 -0.322522,-20.06313 z m 27.568252,-20.93215 c 11.968965,-0.33212 21.818716,-0.66083 21.888336,-0.73045 0.0696,-0.0696 -0.88775,-0.87783 -2.127474,-1.79602 l -2.254052,-1.66944 -23.338446,0.58699 c -12.836145,0.32285 -23.374021,0.62083 -23.417501,0.66218 -0.04348,0.0413 0.309496,0.86312 0.784392,1.82616 l 0.863447,1.75098 2.919775,-0.0133 c 1.605876,-0.007 12.712562,-0.285 24.681523,-0.61713 z"
       id="path906"
       inkscape:connector-curvature="0"
       sodipodi:nodetypes="cccccscscsccccscsccscsccccccccccccsccccccccscccscccccscccccccsscccccccccccccssscsccsccssccccccccccccsccccccccccccscccccscscccccccccccccsccaccccsscacsccsascccc" />
  </g>
</svg>
