<?xml version="1.0" encoding="UTF-8" standalone="no"?>
<!-- Created with Inkscape (http://www.inkscape.org/) -->

<svg
   xmlns:dc="http://purl.org/dc/elements/1.1/"
   xmlns:cc="http://creativecommons.org/ns#"
   xmlns:rdf="http://www.w3.org/1999/02/22-rdf-syntax-ns#"
   xmlns:svg="http://www.w3.org/2000/svg"
   xmlns="http://www.w3.org/2000/svg"
   xmlns:sodipodi="http://sodipodi.sourceforge.net/DTD/sodipodi-0.dtd"
   xmlns:inkscape="http://www.inkscape.org/namespaces/inkscape"
   width="130mm"
   height="150mm"
   viewBox="0 0 130 150"
   version="1.1"
   id="svg8"
   inkscape:version="0.92.3 (2405546, 2018-03-11)"
   sodipodi:docname="frog.svg">
  <defs
     id="defs2" />
  <sodipodi:namedview
     id="base"
     pagecolor="#ffffff"
     bordercolor="#666666"
     borderopacity="1.0"
     inkscape:pageopacity="0.0"
     inkscape:pageshadow="2"
     inkscape:zoom="16"
     inkscape:cx="305.97494"
     inkscape:cy="488.24596"
     inkscape:document-units="mm"
     inkscape:current-layer="layer1"
     showgrid="false"
     inkscape:window-width="1920"
     inkscape:window-height="1016"
     inkscape:window-x="1600"
     inkscape:window-y="27"
     inkscape:window-maximized="1"
     showguides="false" />
  <metadata
     id="metadata5">
    <rdf:RDF>
      <cc:Work
         rdf:about="">
        <dc:format>image/svg+xml</dc:format>
        <dc:type
           rdf:resource="http://purl.org/dc/dcmitype/StillImage" />
        <dc:title />
      </cc:Work>
    </rdf:RDF>
  </metadata>
  <g
     inkscape:label="Calque 1"
     inkscape:groupmode="layer"
     id="layer1"
     transform="translate(0,-147)">
    <ellipse
       style="fill:#658525;fill-opacity:1;stroke:none;stroke-width:1.56307328;stroke-linecap:butt;stroke-linejoin:miter;stroke-miterlimit:4;stroke-dasharray:none;stroke-opacity:1"
       id="path852"
       cx="56.57093"
       cy="163.62915"
       rx="14.108885"
       ry="14.008265" />
    <path
       style="fill:#658525;fill-opacity:1;stroke:none;stroke-width:2.21068668;stroke-linecap:butt;stroke-linejoin:miter;stroke-miterlimit:4;stroke-dasharray:none;stroke-opacity:1"
       d="m 48.017418,169.45004 h 35.369648 c 0,3.80756 -0.03877,11.00068 -0.304269,16.17774 -0.105623,2.05958 5.380776,-0.73764 6.586647,0.74153 1.438048,1.76397 6.455433,1.71584 6.570093,3.19255 0.34418,4.43269 10.574503,31.54603 10.157243,36.74309 -0.0181,0.22519 -11.371678,33.82637 -12.598808,33.97697 -1.078974,0.13242 -6.799099,0.79777 -7.58337,0.28736 -0.759853,-0.49451 -3.416702,-2.24763 -3.410775,-3.68941 0.0074,-1.79259 12.263674,-32.81996 11.885062,-33.99623 -1.068423,-3.31938 -3.279323,-12.39773 -3.311693,-11.78757 -0.0669,1.26108 -7.420908,-0.83094 -7.518096,0.46322 -1.00703,13.40965 -1.3145,26.72698 -1.745149,41.45233 -0.158103,5.40608 -0.924596,15.59201 -0.517117,20.40968 0.224644,2.65601 1.772977,1.49344 1.70002,2.14863 -0.09395,2.9283 -0.355696,6.09173 -0.892308,8.73016 l -11.311703,0.78455 -0.872063,8.54735 -19.64456,1.04577 -6.098732,-7.85793 0.68989,-9.37735 4.172338,-1.16578 -1.336464,-3.3349 0.946638,-60.09196 -8.597141,-0.12751 -5.98488,15.49692 11.179191,34.305 -7.710831,0.0414 -11.132475,-34.06242 -2.187342,-2.49053 7.755199,-21.12049 6.501299,-17.13179 8.550657,-1.33806 z"
       id="rect869-6"
       inkscape:connector-curvature="0"
       sodipodi:nodetypes="ccsssssssssssscccccccccccccccccccc" />
    <ellipse
       style="fill:#658525;fill-opacity:1;stroke:none;stroke-width:1.55741429;stroke-linecap:butt;stroke-linejoin:miter;stroke-miterlimit:4;stroke-dasharray:none;stroke-opacity:1"
       id="path852-3"
       cx="82.599648"
       cy="163.37192"
       rx="14.148581"
       ry="14.008265" />
    <ellipse
       style="fill:#092a35;fill-opacity:1;stroke:none;stroke-width:0.72712421;stroke-linecap:butt;stroke-linejoin:miter;stroke-miterlimit:4;stroke-dasharray:none;stroke-opacity:1"
       id="path902"
       ry="6.805305"
       rx="6.5286608"
       cy="164.37793"
       cx="57.494884" />
    <ellipse
       style="fill:#092a35;fill-opacity:1;stroke:none;stroke-width:0.62273526;stroke-linecap:butt;stroke-linejoin:miter;stroke-miterlimit:4;stroke-dasharray:none;stroke-opacity:1"
       id="path902-5"
       ry="6.719542"
       rx="6.465363"
       cy="163.88699"
       cx="83.809959" />
    <path
       style="fill:#000000;stroke-width:0.40658206"
       d="m 49.687029,294.67452 c -0.334754,-0.39134 -1.643845,-2.31872 -2.909091,-4.2831 l -2.300445,-3.57159 v -4.87505 c 0,-4.85894 0.0034,-4.87637 1.042924,-5.27158 0.573607,-0.21808 1.667608,-0.3965 2.431113,-0.3965 h 1.388191 l -1.178654,-1.72798 -1.178652,-1.72798 0.567393,-29.85967 c 0.312064,-16.4228 0.526045,-29.89945 0.475513,-29.9481 -0.05054,-0.0486 -1.643802,-0.14645 -3.540594,-0.21739 l -3.448715,-0.12892 -2.995075,7.74321 -2.995073,7.74323 5.528978,16.8901 c 3.040938,9.28956 5.528979,17.17699 5.528979,17.52763 0,0.52328 -0.674097,0.66189 -3.760884,0.77329 -2.068486,0.0747 -3.980948,0.0713 -4.249914,-0.007 -1.376448,-0.40254 -3.263863,-4.94176 -8.63991,-20.77892 l -5.71805,-16.84465 6.508685,-17.02086 c 5.544902,-14.50049 6.508685,-17.35081 6.508685,-19.24908 0,-2.01773 0.09851,-2.26569 1.042925,-2.62474 0.573607,-0.21808 2.952113,-0.39652 5.285566,-0.39652 h 4.242643 l -1.2e-5,-5.79378 -1.3e-5,-5.79381 -1.395118,-1.11316 c -0.785457,-0.62672 -1.984757,-2.3109 -2.744416,-3.85398 -1.211729,-2.46138 -1.348401,-3.09404 -1.340497,-6.20531 0.0074,-2.8783 0.190336,-3.85491 1.081675,-5.77192 1.431619,-3.07897 3.981027,-5.7626 6.780339,-7.1373 1.994427,-0.97943 2.77123,-1.12572 5.952974,-1.12111 5.118795,0.007 8.107076,1.15847 11.333318,4.36538 l 2.388505,2.37419 0.628101,-0.93294 c 1.23376,-1.83256 4.132654,-4.34336 5.935411,-5.14081 5.288347,-2.33928 13.041822,-0.95519 17.153041,3.06203 4.311051,4.21249 5.177835,11.15703 2.110801,16.91138 -2.08389,3.90978 -5.443307,6.3479 -10.173623,7.3836 l -1.118102,0.24482 v 3.81173 3.81173 l 3.151011,0.17367 c 2.6388,0.14552 3.679747,0.43335 6.403667,1.77104 l 3.252658,1.59734 0.236971,3.04935 c 0.186365,2.39816 1.29344,6.25728 5.183922,18.07044 2.72082,8.26159 4.94694,15.22312 4.94694,15.47007 0,0.44096 -12.894864,34.78508 -13.159967,35.05017 -0.07453,0.0746 -1.910175,0.25206 -4.079229,0.39454 l -3.943732,0.25906 -1.555145,-1.51855 -1.555147,-1.51857 -0.245938,2.98058 c -0.135274,1.63932 -0.287844,4.99318 -0.339056,7.45299 -0.07803,3.74771 0.02671,4.65306 0.646322,5.58728 0.653134,0.98476 0.705286,1.63767 0.446826,5.59411 -0.160938,2.4636 -0.472981,4.59073 -0.693429,4.72696 -0.220449,0.13631 -2.899036,0.40008 -5.952415,0.58631 -3.053375,0.18622 -5.597334,0.34755 -5.653239,0.35854 -0.05591,0.0108 -0.101649,1.83878 -0.101649,4.06177 0,2.61717 -0.165495,4.14411 -0.469517,4.332 -0.386443,0.23886 -15.406731,1.31629 -19.085051,1.36902 -0.580298,0.007 -1.328974,-0.30505 -1.663729,-0.69638 z m 12.883365,-0.7233 c 2.683441,-0.12556 5.473611,-0.31971 6.200377,-0.43157 l 1.321391,-0.20337 v -4.67568 -4.6757 l -1.321391,0.20524 c -0.726766,0.11301 -3.791379,0.30807 -6.81025,0.43375 -3.018871,0.1257 -6.815332,0.33756 -8.436577,0.47084 l -2.947719,0.2423 v 4.68036 4.68037 l 3.557592,-0.24917 c 1.956675,-0.13707 5.753136,-0.35185 8.436577,-0.47737 z M 48.48342,282.61763 c -3.472359,-5.01496 -3.192764,-4.9893 -3.192764,-0.29306 v 4.12465 l 2.337847,3.51552 2.337848,3.51551 0.116554,-4.1921 0.116553,-4.1921 z m 11.647481,1.59113 c 3.130683,-0.12678 6.562821,-0.33409 7.626973,-0.4607 l 1.934825,-0.23018 -1.300992,-1.64264 -1.300994,-1.64264 -6.675696,0.28819 c -3.671635,0.1585 -6.886772,0.36917 -7.144753,0.46819 -0.257979,0.099 -0.813127,-0.45892 -1.233659,-1.2398 -1.306768,-2.42652 -1.932675,-2.77764 -4.260679,-2.3902 l -2.047277,0.34075 2.470928,3.58925 2.470929,3.58926 1.884125,-0.21948 c 1.036268,-0.12079 4.445588,-0.32323 7.57627,-0.45 z m 20.372457,-0.0389 1.669678,-0.2005 0.261587,-3.09453 c 0.359963,-4.25838 0.329071,-5.41134 -0.145002,-5.41134 -0.22362,0 -0.406583,0.81252 -0.406583,1.80563 0,0.99308 -0.162971,1.90634 -0.362155,2.02944 -0.199184,0.12309 -3.023698,0.34477 -6.276692,0.49258 -3.252992,0.14782 -6.141067,0.40875 -6.417946,0.57988 -0.364207,0.22509 -0.146355,0.71779 0.787834,1.78176 0.710185,0.80886 1.291243,1.73383 1.291243,2.05548 0,0.48318 0.688987,0.54809 3.964176,0.37345 2.180296,-0.11612 4.715531,-0.30159 5.633856,-0.41185 z M 62.163812,279.9174 c 3.354302,-0.22162 8.912327,-0.5755 12.351169,-0.7864 3.438844,-0.2109 6.310167,-0.44117 6.380713,-0.51172 0.07055,-0.0705 0.696935,-15.12624 1.39197,-33.45708 0.695036,-18.33084 1.339989,-33.5575 1.433235,-33.83703 0.123688,-0.37078 1.574915,-0.50992 5.366215,-0.51444 2.858174,-0.004 5.447037,-0.16483 5.753027,-0.35869 0.425846,-0.26976 0.657309,-2.69926 0.986778,-10.35742 0.236736,-5.50272 0.33219,-10.10319 0.212114,-10.22326 -0.18201,-0.18202 -52.863443,0.97385 -53.044034,1.16381 -0.0327,0.0345 -0.125331,4.77382 -0.205856,10.53204 l -0.146402,10.46948 h 5.999654 5.999653 l -0.0083,1.93127 c -0.0047,1.06219 -0.275635,13.64082 -0.602323,27.95251 -0.326694,14.3117 -0.597379,28.81142 -0.601529,32.22163 l -0.0075,6.20038 1.321391,-0.0108 c 0.726765,-0.006 4.065821,-0.1924 7.420123,-0.41402 z m -8.776077,-31.4916 c 0.247022,-14.3117 0.55903,-28.17107 0.693357,-30.79861 l 0.244229,-4.77735 h -2.687715 -2.687711 l 0.0069,3.15103 c 0.0038,1.73305 -0.20917,15.25374 -0.473301,30.04597 l -0.480237,26.89496 1.286465,1.62428 c 0.707557,0.89337 1.286466,1.7426 1.286466,1.88719 0,0.1446 0.411663,0.82085 0.914808,1.50283 l 0.91481,1.23992 0.266381,-2.3745 c 0.146507,-1.30596 0.468491,-14.08405 0.715512,-28.39572 z m -8.156387,13.80612 c 0.07919,-0.0741 -2.345056,-7.60196 -5.387212,-16.7285 -3.042157,-9.12653 -5.531194,-16.85093 -5.531194,-17.16531 0,-0.31439 1.452619,-4.33953 3.228042,-8.94475 l 3.228041,-8.37313 0.226418,-9.96126 c 0.124533,-5.47869 0.129465,-9.7783 0.01089,-9.55468 -0.118492,0.22362 -3.385053,8.63987 -7.259015,18.70276 l -7.043564,18.2962 5.641518,16.66987 c 3.102833,9.16841 5.707308,16.85521 5.787722,17.08172 0.130187,0.36673 6.704757,0.3455 7.098275,-0.0229 z m 48.220546,-2.30405 c 0.04474,-0.0649 2.971005,-7.79561 6.502838,-17.17963 l 6.421508,-17.06183 -4.56226,-14.0417 c -2.509252,-7.72293 -4.726904,-14.2155 -4.928126,-14.42794 -0.218286,-0.23046 -0.366843,1.08154 -0.368294,3.25264 -0.0012,2.00141 -0.121844,5.17309 -0.267792,7.04815 -0.220936,2.83858 -0.390668,3.44201 -1.01402,3.60502 -0.411765,0.10775 -0.748663,0.2259 -0.748663,0.2627 0,0.0163 0.210626,0.66081 0.559807,1.71632 1.459277,4.3983 2.731087,8.18902 4.277384,12.81182 l -6.041539,16.13519 c -3.322846,8.87434 -6.2468,16.6659 -6.49767,17.31458 l -0.456128,1.17943 3.520814,-0.24846 c 1.936448,-0.13662 3.557409,-0.30148 3.602141,-0.36627 z m -1.04085,-16.9946 c 4.498177,-12.02818 6.117793,-16.81408 5.813303,-17.17808 -0.232146,-0.27752 -0.955549,-0.81771 -1.607565,-1.20038 l -1.185476,-0.6958 -6.187141,16.70966 -6.187138,16.70965 1.115401,1.16424 c 0.613475,0.64032 1.315166,1.16423 1.559318,1.16423 0.244155,0 3.249836,-7.50308 6.679298,-16.67352 z m -3.404884,-4.43016 5.621534,-15.20821 -1.928652,-5.83242 c 0.104846,-0.10355 0.260849,-0.56034 0.303795,-0.53016 0.0537,0.0378 2.023178,5.49543 2.105814,5.91367 l 3.602928,2.53439 c -0.137257,-0.28308 -4.804541,-13.58253 -4.839268,-13.76511 -0.328577,0.0915 -2.000309,0.14091 -2.17138,0.39592 0.05466,0.34076 1.60577,5.61083 1.548014,5.69458 -0.08668,0.1257 -0.496907,-0.27995 -0.549903,-0.24322 l -1.928648,-5.83236 h -3.223929 -3.223932 v 1.43109 c 0,1.88315 -1.12232,31.65681 -1.4097,37.3975 -0.128053,2.55787 -0.07499,4.21134 0.123949,3.86255 0.191312,-0.33544 2.877531,-7.45358 5.969372,-15.81812 z m -55.283049,-29.66185 7.242295,-18.84881 -0.988087,-0.74531 c -0.917192,-0.69185 -1.006546,-0.69595 -1.245389,-0.0573 -0.141513,0.37844 -3.297742,8.62689 -7.013839,18.32991 -3.716096,9.703 -6.756537,17.80551 -6.756537,18.00557 0,0.41069 1.278286,2.45571 1.424579,2.27905 0.05207,-0.0628 3.353715,-8.59631 7.336978,-18.96315 z m 8.673441,-13.14552 c 0.02648,-2.62091 -0.125271,-4.86045 -0.338277,-4.99209 -0.398621,-0.24635 -0.81437,19.54154 -0.426856,20.31658 0.242234,0.48447 0.697533,-8.63447 0.765133,-15.32449 z m 26.272573,-5.81868 c 12.522727,-0.32695 23.500443,-0.61343 24.394923,-0.63665 l 1.626328,-0.0423 -2.846075,-1.37232 c -2.265512,-1.09239 -3.358663,-1.37554 -5.358933,-1.38809 -2.301984,-0.0138 -2.523762,0.061 -2.642784,0.89903 -0.115069,0.81021 -0.4321,0.94357 -2.772706,1.1663 -1.453532,0.1383 -8.809137,0.37949 -16.345794,0.5359 l -13.703011,0.28439 -1.536555,-1.04412 c -1.656679,-1.12575 -2.947784,-1.25201 -7.960961,-0.77857 l -2.750647,0.25978 1.937482,1.34127 c 1.383809,0.95797 2.402237,1.34533 3.56381,1.35548 0.89448,0.007 11.872195,-0.25325 24.394923,-0.58019 z m -0.03229,-1.41799 c 10.439189,-0.29061 13.87197,-0.51073 14.122502,-0.90556 0.182043,-0.2869 0.333791,-2.57167 0.337214,-5.07725 l 0.0063,-4.55562 -1.524681,-0.25352 c -2.804076,-0.46624 -7.665812,-2.62799 -8.995397,-3.99977 -0.706807,-0.72924 -1.144662,-1.48042 -0.973011,-1.66928 0.171646,-0.18886 0.0959,-0.21951 -0.168326,-0.0681 -0.268059,0.15366 -0.762275,-0.12709 -1.118101,-0.63517 l -0.637691,-0.91044 -0.676398,1.00529 c -1.334329,1.98309 -4.56716,4.81155 -6.501459,5.68824 -2.570148,1.16487 -6.705278,1.48571 -8.968748,0.69592 -0.942119,-0.32875 -1.811189,-0.49947 -1.931264,-0.3794 -0.120077,0.12001 -0.218324,2.74929 -0.218324,5.8427 v 5.62439 l 1.727974,-0.01 c 0.950386,-0.005 7.934157,-0.18201 15.519486,-0.39317 z M 50.9828,182.77323 v -5.68171 l -1.199556,-0.6203 c -0.659755,-0.34117 -1.300123,-0.62032 -1.423037,-0.62032 -0.12292,0 -0.223482,2.45202 -0.223482,5.44892 v 5.44896 l 1.321392,0.84623 c 0.726765,0.46543 1.367133,0.84933 1.423036,0.85309 0.05591,0.004 0.101649,-2.54991 0.101649,-5.67487 z m 11.44495,-6.40302 c 5.036376,-2.24845 8.432874,-8.6405 7.651361,-14.39948 -0.888083,-6.54433 -6.032245,-11.15406 -12.387705,-11.10076 -5.106224,0.0429 -9.427719,2.89618 -11.818405,7.80328 -0.963745,1.97818 -1.142863,2.86853 -1.165487,5.79336 -0.04414,5.70617 2.13167,9.47991 6.797247,11.78916 2.3073,1.14201 2.810677,1.23822 5.780064,1.10465 2.146228,-0.0965 3.895654,-0.43338 5.142925,-0.99021 z m -4.839136,-5.41224 c 3.327533,-0.56012 4.661627,-1.70283 6.154551,-5.27162 0.140315,-0.33543 0.15038,-0.0721 0.02236,0.58506 -0.528935,2.71552 -3.771281,5.15994 -6.710722,5.05926 -1.233318,-0.0423 -1.171005,-0.0857 0.533802,-0.3727 z m -3.770913,-0.68506 c -0.552904,-0.38446 -1.312927,-1.07056 -1.688942,-1.52469 -0.687324,-0.83009 -1.741436,-4.22824 -1.413373,-4.55631 0.09667,-0.0966 0.392393,0.72716 0.657143,1.83075 0.466922,1.94636 1.648721,3.46951 3.472804,4.4759 0.447239,0.24674 0.625172,0.45419 0.395404,0.46099 -0.229771,0.006 -0.870138,-0.30219 -1.423036,-0.68664 z m 9.875998,-7.49142 c -0.366622,-1.58699 -0.88867,-2.53572 -1.925292,-3.49881 -0.782251,-0.72675 -1.277891,-1.32139 -1.101423,-1.32139 0.176469,0 0.883926,0.59464 1.572128,1.32139 1.284307,1.35628 2.324348,3.85484 2.089697,5.0202 -0.07265,0.3608 -0.358446,-0.32381 -0.63511,-1.52139 z m -12.693052,0.33699 c -0.0098,-0.40603 0.187073,-1.13787 0.437524,-1.62633 0.551361,-1.07528 2.830844,-3.53086 3.277657,-3.53086 0.176469,0 -0.324465,0.59464 -1.113185,1.32139 -0.788721,0.72676 -1.692814,2.05324 -2.009093,2.94772 -0.316281,0.89448 -0.583087,1.29413 -0.592903,0.88808 z m 5.064431,-5.54478 c 0.78052,-0.35363 2.95823,-0.58419 2.608903,-0.27621 -0.09317,0.082 -0.901258,0.26078 -1.795739,0.39698 -1.133469,0.17259 -1.379898,0.13599 -0.813164,-0.12078 z m 32.651621,18.1094 c 5.016661,-2.55307 8.196287,-8.66877 7.433584,-14.29775 -1.177032,-8.68684 -10.037149,-13.47825 -17.534323,-9.48231 -4.704093,2.50727 -7.383721,6.87649 -7.455831,12.15698 -0.08765,6.41872 2.729291,10.55689 8.486708,12.46716 2.332415,0.77388 6.686953,0.36862 9.069862,-0.84408 z m -4.67482,-5.1573 c 0.851932,-0.20043 1.903964,-0.55443 2.337848,-0.78663 0.433883,-0.23221 0.788878,-0.31495 0.788878,-0.18385 0,0.4037 -2.765811,1.41898 -3.747825,1.37575 -0.59408,-0.0261 -0.370648,-0.17193 0.621099,-0.40527 z m -3.849641,-0.58013 c -1.25206,-0.68004 -2.944248,-3.21134 -2.644038,-3.95514 0.130925,-0.3244 0.216402,-0.27057 0.236919,0.14921 0.04539,0.92872 1.566081,2.75469 3.045402,3.65677 1.464384,0.89298 0.951733,1.01277 -0.638283,0.14921 z m 8.516694,-2.38686 c 0.60635,-0.98274 1.17497,-1.71831 1.2636,-1.6346 0.179381,0.16942 -1.896642,3.42138 -2.184177,3.42138 -0.100033,0 0.314226,-0.80405 0.920577,-1.78678 z m -11.625615,-3.2955 c 0.0083,-0.67086 0.09941,-0.89607 0.202495,-0.50049 0.103085,0.39559 0.0963,0.94448 -0.01506,1.21975 -0.111346,0.27526 -0.195696,-0.0484 -0.187411,-0.71926 z m 12.931362,-0.58341 c 0,-2.17933 -0.586755,-3.55301 -2.14263,-5.0162 -0.864927,-0.81338 -1.010637,-1.07501 -0.426781,-0.76628 1.555323,0.82245 2.704051,2.88884 2.896585,5.21054 0.09905,1.1945 0.06597,2.17181 -0.07353,2.17181 -0.139501,0 -0.253638,-0.71995 -0.253638,-1.59987 z M 77.42655,162.51515 c -0.02667,-0.88501 1.061675,-2.6673 2.283304,-3.73923 l 1.156729,-1.01498 -1.095674,1.21828 c -0.60262,0.67005 -1.373043,1.85864 -1.71206,2.6413 -0.339011,0.78269 -0.623545,1.18525 -0.632299,0.89463 z m 4.049906,-4.90819 c 0.33543,-0.20104 1.25024,-0.47888 2.032911,-0.61746 0.959948,-0.16997 1.158413,-0.1386 0.609873,0.0962 -1.257283,0.53825 -3.364696,0.95394 -2.642784,0.52128 z m 3.989586,-0.32999 c 0.293501,-0.11744 0.644177,-0.10296 0.779285,0.0321 0.135105,0.13507 -0.105037,0.23119 -0.53364,0.21353 -0.473647,-0.0195 -0.569987,-0.11588 -0.245645,-0.24564 z m -41.320198,7.08798 c 0.358546,-6.79825 4.424157,-12.03284 10.699489,-13.77586 0.92816,-0.25782 0.741658,-0.2915 -0.780195,-0.14092 -2.0908,0.20688 -5.546598,1.65494 -6.955122,2.91433 -2.827612,2.52826 -4.391926,6.32554 -4.348111,10.55485 0.01694,1.63448 0.146217,3.15855 0.287309,3.38683 0.624112,1.00983 0.931856,0.18502 1.09663,-2.93924 z m 27.974472,-6.39351 c 1.669153,-3.56372 5.56153,-6.74981 9.511732,-7.7858 0.853281,-0.22379 0.482445,-0.25763 -1.13484,-0.10355 -2.809613,0.26761 -4.673123,1.03316 -7.017647,2.88297 -2.428015,1.91569 -3.538309,3.8611 -3.208119,5.62115 0.145278,0.77444 0.40754,1.40805 0.582806,1.40805 0.175261,0 0.744992,-0.91024 1.266068,-2.02276 z"
       id="path846"
       inkscape:connector-curvature="0"
       sodipodi:nodetypes="cccscscccscccccssccscsscscccccccccccccsscccccscssscsccccccscccsccccccccccccccccccsccccccsscccccccccccscccssccccsccccscscccsccsccccsccccccsccccsccsccscccssscscscsccccscsccccsccsscccsccccccsscccsccccsccccsccccccccsscccccsccccscccccsscccccccccccccccccccscccccccsscscccssccsccsccccccccccccccsscccccssccccscccscscccssccccccccccsccccccccccsccccccccccccccccccscccsccsccscsscc" />
  </g>
</svg>
