<?xml version="1.0" encoding="UTF-8" standalone="no"?>
<!-- Created with Inkscape (http://www.inkscape.org/) -->

<svg
   xmlns:dc="http://purl.org/dc/elements/1.1/"
   xmlns:cc="http://creativecommons.org/ns#"
   xmlns:rdf="http://www.w3.org/1999/02/22-rdf-syntax-ns#"
   xmlns:svg="http://www.w3.org/2000/svg"
   xmlns="http://www.w3.org/2000/svg"
   xmlns:sodipodi="http://sodipodi.sourceforge.net/DTD/sodipodi-0.dtd"
   xmlns:inkscape="http://www.inkscape.org/namespaces/inkscape"
   width="130mm"
   height="150mm"
   viewBox="0 0 130 150"
   version="1.1"
   id="svg8"
   inkscape:version="0.92.3 (2405546, 2018-03-11)"
   sodipodi:docname="knight.svg">
  <defs
     id="defs2" />
  <sodipodi:namedview
     id="base"
     pagecolor="#ffffff"
     bordercolor="#666666"
     borderopacity="1.0"
     inkscape:pageopacity="0.0"
     inkscape:pageshadow="2"
     inkscape:zoom="1"
     inkscape:cx="-80.606266"
     inkscape:cy="247.60564"
     inkscape:document-units="mm"
     inkscape:current-layer="layer1"
     showgrid="false"
     inkscape:window-width="1920"
     inkscape:window-height="1016"
     inkscape:window-x="1600"
     inkscape:window-y="27"
     inkscape:window-maximized="1"
     showguides="false" />
  <metadata
     id="metadata5">
    <rdf:RDF>
      <cc:Work
         rdf:about="">
        <dc:format>image/svg+xml</dc:format>
        <dc:type
           rdf:resource="http://purl.org/dc/dcmitype/StillImage" />
        <dc:title />
      </cc:Work>
    </rdf:RDF>
  </metadata>
  <g
     inkscape:label="Calque 1"
     inkscape:groupmode="layer"
     id="layer1"
     transform="translate(0,-147)">
    <path
       style="fill:#608692;fill-opacity:1;stroke:none;stroke-width:2.11130834;stroke-linecap:butt;stroke-linejoin:miter;stroke-miterlimit:4;stroke-dasharray:none;stroke-opacity:0.98648652"
       d="m 49.695179,153.07995 c 12.34633,-1.00188 25.086266,-1.06657 37.57518,-0.28062 -0.152483,9.99704 -0.450026,20.41347 -1.13442,30.23321 -12.42139,0.63844 -24.396529,0.97656 -36.973914,-0.32891 z"
       id="rect821"
       inkscape:connector-curvature="0"
       sodipodi:nodetypes="ccccc" />
    <path
       style="fill:#33474d;fill-opacity:1;stroke:none;stroke-width:1;stroke-linecap:butt;stroke-linejoin:miter;stroke-miterlimit:4;stroke-dasharray:none;stroke-opacity:0.98648652"
       d="m 60.693433,160.1145 22.97765,-0.10749 -0.486491,6.07898 -7.507246,0.25319 -0.07388,6.62283 -5.26515,-0.0678 0.334667,-6.65824 -10.020894,0.0294 z"
       id="rect849"
       inkscape:connector-curvature="0"
       sodipodi:nodetypes="ccccccccc" />
    <path
       style="fill:#608692;fill-opacity:1;stroke:none;stroke-width:3.04712582;stroke-linecap:butt;stroke-linejoin:miter;stroke-miterlimit:4;stroke-dasharray:none;stroke-opacity:0.98648652"
       d="m 30.264912,181.61443 56.591917,-0.65099 12.096351,1.8537 -3.34087,73.23185 -61.198617,1.92855 -4.442692,-7.37976 c -0.817381,-23.45213 0.158811,-46.00746 0.293911,-68.98335 z"
       id="rect824"
       inkscape:connector-curvature="0"
       sodipodi:nodetypes="ccccccc" />
    <path
       style="fill:#6fffb9;fill-opacity:1;stroke:none;stroke-width:3.31052804;stroke-linecap:butt;stroke-linejoin:miter;stroke-miterlimit:4;stroke-dasharray:none;stroke-opacity:0.98648652"
       d="m 38.244741,187.26385 1.132747,-0.10751 c -1.663576,15.79756 -5.163245,30.80982 -7.75792,46.16942 l 0.99451,5.85426 -3.199806,-0.14881 0.09987,-13.62393 1.08404,-0.41587 1.611709,-7.0474 c 1.912933,-10.26033 3.322965,-25.44739 6.03485,-30.68016 z"
       id="rect846"
       inkscape:connector-curvature="0"
       sodipodi:nodetypes="ccccccccc" />
    <path
       style="fill:#608692;fill-opacity:1;stroke:none;stroke-width:1;stroke-linecap:butt;stroke-linejoin:miter;stroke-miterlimit:4;stroke-dasharray:none;stroke-opacity:0.98648652"
       d="m 67.421844,257.08193 22.417216,-0.60803 -1.122534,30.76651 -17.319048,0.8419 -4.728652,-6.18033 z"
       id="rect827-3"
       inkscape:connector-curvature="0"
       sodipodi:nodetypes="cccccc" />
    <path
       style="fill:#608692;fill-opacity:1;stroke:none;stroke-width:1;stroke-linecap:butt;stroke-linejoin:miter;stroke-miterlimit:4;stroke-dasharray:none;stroke-opacity:0.98648652"
       d="m 34.289661,258.48635 9.723195,-0.62217 11.439681,-0.1044 -1.039435,31.19981 -17.64854,0.44059 -3.389081,-5.9138 z"
       id="rect827"
       inkscape:connector-curvature="0"
       sodipodi:nodetypes="ccccccc" />
    <path
       style="fill:#000000;stroke-width:0.26458332"
       d="m 36.467681,289.76567 c -0.104725,-0.10473 -0.846799,-1.55971 -1.649055,-3.2333 l -1.458648,-3.04289 0.04045,-13.09688 0.04045,-13.09687 -1.762244,-2.77813 c -2.750357,-4.33586 -2.533161,-3.36591 -2.536841,-11.32891 -0.0019,-3.88279 0.02961,-7.71446 0.06978,-8.51483 0.08391,-1.67162 0.1118,-6.18372 0.04906,-7.9375 -0.02341,-0.65484 0.05275,-5.41734 0.169273,-10.58333 0.116522,-5.166 0.226404,-14.9946 0.244181,-21.84136 0.02413,-9.29258 0.112813,-12.52914 0.349819,-12.76615 0.234561,-0.23456 2.68038,-0.3175 9.362964,-0.3175 h 9.045467 l 0.16014,-6.41614 c 0.0881,-3.52888 0.23372,-9.82375 0.32364,-13.98859 0.0899,-4.16485 0.2467,-7.70705 0.34837,-7.87156 0.37319,-0.60384 7.36785,-0.91535 21.055462,-0.9377 13.93496,-0.0228 17.17579,0.11952 17.42344,0.7649 0.0745,0.19409 -0.0922,6.04946 -0.37036,13.01193 -0.27818,6.96247 -0.50822,13.22459 -0.5112,13.91581 l -0.005,1.25677 h 1.0184 c 1.62761,0 10.965711,1.29494 11.227751,1.55699 0.31768,0.31767 -2.96413,73.34207 -3.3159,73.78311 -0.17903,0.22446 -1.10356,0.33073 -2.87723,0.33073 h -2.61344 l 0.009,0.7276 c 0.005,0.40018 -0.25172,7.27604 -0.5709,15.27969 -0.375041,9.40426 -0.682561,14.65621 -0.869321,14.84645 -0.32008,0.32604 -17.13621,1.06246 -17.60767,0.77109 -0.15086,-0.0932 -1.34259,-1.53937 -2.64828,-3.21362 l -2.37399,-3.0441 0.12728,-2.43095 c 0.25279,-4.82776 0.68125,-21.93491 0.5526,-22.06355 -0.0725,-0.0725 -2.68118,-0.0452 -5.79716,0.0606 l -5.665432,0.1923 -0.17126,6.64715 c -0.0942,3.65594 -0.25063,10.67026 -0.34765,15.58737 -0.097,4.91712 -0.24666,8.98315 -0.33254,9.03563 -0.0859,0.0525 -3.48989,0.22665 -7.564473,0.38705 -4.074583,0.1604 -8.076628,0.34733 -8.893437,0.41538 -0.816805,0.0681 -1.570786,0.0381 -1.675508,-0.0667 z m 10.565498,-0.86933 c 3.927168,-0.15658 7.154288,-0.30609 7.171378,-0.33224 0.0881,-0.13478 0.67269,-30.6597 0.58877,-30.74361 -0.0963,-0.0963 -17.487753,0.4103 -17.6059,0.51286 -0.03279,0.0285 -0.141348,7.03014 -0.241242,15.55929 l -0.181623,15.50754 1.564156,-0.10957 c 0.860287,-0.0603 4.777295,-0.2377 8.704461,-0.39427 z m -10.395646,-19.36364 0.09696,-11.04635 h -1.222417 -1.222415 l -0.174955,7.9806 c -0.09623,4.38933 -0.174959,9.98352 -0.174959,12.43153 v 4.45093 l 1.124479,2.27065 1.12448,2.27066 0.175929,-3.65583 c 0.09676,-2.01071 0.219565,-8.62669 0.272894,-14.70219 z m 45.059516,17.96791 6.87916,-0.30697 0.63574,-15.15107 c 0.34966,-8.33308 0.578691,-15.20811 0.508961,-15.27784 -0.135761,-0.13576 -16.960551,0.38662 -17.106931,0.53114 -0.0619,0.0611 -0.99666,25.8447 -1.0959,30.2285 -0.009,0.39819 0.76352,0.39638 10.17897,-0.0238 z M 71.639829,273.5676 c 0.22077,-6.76672 0.40108,-13.16633 0.40067,-14.22135 l -7.5e-4,-1.91823 h -2.11162 c -1.97753,0 -2.11932,0.0378 -2.23283,0.59531 -0.0667,0.32742 -0.18974,3.69094 -0.27352,7.47448 -0.0838,3.78354 -0.22433,9.02229 -0.31232,11.64167 l -0.16,4.7625 2.08213,2.64583 c 1.79291,2.27832 2.09078,2.55395 2.14447,1.98437 0.0343,-0.3638 0.24299,-6.19786 0.46377,-12.96458 z m -5.15633,-16.70558 c 15.78901,-0.45865 28.784301,-0.90588 28.878421,-0.99385 0.1261,-0.11786 3.43252,-70.72875 3.40527,-72.72192 -0.006,-0.44938 -11.919661,-0.48059 -12.367851,-0.0324 -0.16408,0.16408 -1.64641,0.39534 -3.29406,0.5139 -4.10196,0.29517 -21.65155,0.26427 -26.675942,-0.047 -2.25558,-0.13972 -7.94081,-0.32272 -12.633856,-0.40668 l -8.532813,-0.15263 v 3.02961 c 0,1.66628 -0.07608,5.22159 -0.169069,7.90067 -0.09298,2.67908 -0.104857,4.81153 -0.02638,4.73877 0.07848,-0.0728 0.459156,-2.03729 0.845947,-4.36563 0.821243,-4.94353 1.574642,-7.22676 2.457763,-7.44842 0.963141,-0.24174 1.394621,0.0618 1.264845,0.88992 -0.06358,0.40572 -0.185208,1.86876 -0.270271,3.25121 -0.08507,1.38245 -1.152877,8.16901 -2.372913,15.08125 l -2.218246,12.56771 -0.180324,19.65551 -0.180327,19.6555 1.681258,-0.14082 c 0.924692,-0.0774 14.599536,-0.51608 30.388548,-0.97474 z m -32.210989,-19.14545 0.129217,-16.13958 -1.070509,5.91509 -1.07051,5.91508 0.384871,2.43436 c 0.21168,1.3389 0.313529,2.72524 0.226335,3.08075 -0.145928,0.59497 -0.267591,0.64049 -1.529725,0.57232 l -1.371188,-0.0741 v 5.58865 5.58864 l 1.918229,3.04627 1.91823,3.04627 0.167915,-1.4171 c 0.09235,-0.77941 0.226062,-8.67991 0.297135,-17.55668 z m -1.980893,0.97565 c 0.0576,-0.17281 -0.08378,-0.31419 -0.314193,-0.31419 -0.230407,0 -0.418923,0.18851 -0.418923,0.41892 0,0.46724 0.569585,0.38587 0.733116,-0.10473 z m -1.526866,-1.09233 c 0,-0.57349 -0.119062,-1.1163 -0.264583,-1.20624 -0.145521,-0.0899 -0.264583,0.007 -0.264583,0.2159 0,0.20868 -0.07441,0.75149 -0.165365,1.20624 -0.130934,0.65467 -0.07585,0.82682 0.264583,0.82682 0.324144,0 0.429948,-0.2566 0.429948,-1.04272 z m 1.423578,-0.61092 c -0.425151,-2.80929 -0.524965,-3.2062 -0.832038,-3.30855 -0.407461,-0.13582 -0.416454,0.56845 -0.03521,2.75771 0.196218,1.12676 0.413827,1.67531 0.664586,1.67531 0.288944,0 0.334547,-0.25303 0.202666,-1.12447 z m 1.754327,-23.47138 c 3.060605,-17.7525 4.106532,-24.78444 3.62113,-24.34544 -0.135982,0.12298 -6.931144,39.46182 -7.219865,41.79754 -0.06296,0.50933 -0.232151,1.49745 -0.375986,2.19584 -0.143833,0.69839 -0.249881,1.82948 -0.235657,2.51354 l 0.02588,1.24375 0.371176,-1.71979 c 0.204147,-0.94589 1.92015,-10.70433 3.813339,-21.68544 z m 1.253856,-0.13341 c 1.935805,-10.88727 3.46212,-19.85255 3.391812,-19.92286 -0.627993,-0.628 -1.010888,1.15479 -4.199614,19.55369 -1.850168,10.67544 -3.362915,19.62817 -3.361659,19.89496 0.0013,0.26679 0.147976,0.43651 0.326046,0.37715 0.206756,-0.0689 1.595766,-7.26184 3.843415,-19.90294 z m -4.714942,12.88916 c 0.01355,-0.62623 -0.09866,-0.8599 -0.412895,-0.8599 -0.351383,0 -0.401045,0.18422 -0.267496,0.99219 0.0902,0.54571 0.173677,1.17078 0.185507,1.38906 0.03927,0.72458 0.475303,-0.61587 0.494884,-1.52135 z m 2.218937,-13.89063 2.049737,-12.23698 0.05778,-8.50957 0.05777,-8.50958 -2.077752,-0.56927 c -1.142762,-0.3131 -2.134317,-0.5127 -2.203455,-0.44356 -0.252323,0.25232 -0.434343,42.50594 -0.183108,42.50594 0.13711,0 1.171673,-5.50664 2.299028,-12.23698 z m 6.106874,-20.37291 c 0.07566,-0.61847 0.188304,-1.92816 0.250327,-2.91042 0.09875,-1.56389 0.05553,-1.78594 -0.347665,-1.78594 -0.375396,0 -0.491593,0.32987 -0.62911,1.78594 -0.277908,2.94259 -0.221536,4.03489 0.208232,4.03489 0.249873,0 0.427924,-0.38635 0.518216,-1.12447 z m 37.947098,-8.67796 c 4.18857,-0.0139 8.93871,-0.32325 9.21573,-0.60027 0.15169,-0.15169 1.03437,-20.6098 1.17218,-27.16813 l 0.0528,-2.51354 -1.1616,-0.16801 c -0.63888,-0.0924 -3.63214,-0.2575 -6.6517,-0.3669 l -4.923136,-0.12802 c -0.687659,-0.005 -0.856764,0.001 -0.856764,0.001 l -4.41915,0.005 c -4.92163,0.006 -15.850142,0.41667 -17.944332,0.67407 l -1.35434,0.16646 -0.17609,13.66604 c -0.0969,7.51632 -0.24053,14.10387 -0.31931,14.63901 l -0.14322,0.97298 1.14449,0.16947 c 2.37697,0.35196 8.002202,0.58643 14.968972,0.62391 l 7.20989,0.0388 c 1.41036,0.0235 2.956121,0.009 4.18558,-0.0123 z m -6.53309,-10.33239 0.15564,-3.29405 0.15564,-3.29404 h -5.06729 -5.06729 v -3.30729 -3.30729 h 6.46909 c 4.154994,0.23441 6.006514,0.0112 6.768432,0.0585 2.827619,0.0277 1.974835,-0.0585 5.151028,-0.0585 h 5.15937 v 1.28299 c 0,0.70565 -0.0767,2.19085 -0.17053,3.30044 l -0.17054,2.01744 -3.86436,0.073 -3.86436,0.073 -0.0743,3.24115 -0.0743,3.24114 c -1.89329,0.0286 -3.925728,0.0802 -5.50623,-0.0265 z m 13.370318,-12.86102 -3.614404,-0.0445 -19.135041,0.14459 c -0.01423,1.6953 -0.07087,-0.98356 -0.07087,5.85632 1.352295,0.0424 5.158954,0.0934 9.984625,0.0262 0.22001,-0.003 -0.527093,6.65844 -0.300583,6.68915 0.458808,0.0622 4.37544,0.1162 5.077877,0.0232 0,0 -0.03789,-6.61956 0.03378,-6.62063 4.213242,-0.063 6.596746,-0.10546 7.617501,-0.12677 0.14936,-2.1865 0.402599,-4.35306 0.407115,-5.94756 z m -39.424848,22.41256 c 3.668038,0 4.324982,-0.0603 4.324982,-0.39687 0,-0.34313 -0.982435,-0.39688 -7.254404,-0.39688 -3.989922,0 -7.464763,0.0807 -7.72187,0.17939 -1.013023,0.38873 1.543389,0.86319 3.970563,0.73692 1.295664,-0.0674 4.301992,-0.12256 6.680729,-0.12256 z m 46.790601,-0.29492 2.11667,-0.0362 -2.34474,-0.31345 c -2.705097,-0.36163 -3.872967,-0.26746 -3.872967,0.3123 0,0.31668 0.20954,0.36683 0.99219,0.23747 0.5457,-0.0902 1.944687,-0.18027 3.108847,-0.20016 z"
       id="path826"
       inkscape:connector-curvature="0"
       sodipodi:nodetypes="cscccscccsscscccccccccsccsccsccsccccccccscccccccsccccccccscccsccccsscccccccsccccccccccsccccsccccccsccccccccccscccccccccccsscscscssccssccccccccsccscsccscssscscccccsscssssccscccccccccccccccccccccccccccsccccccccccccssssccccsccccccccccc" />
  </g>
</svg>
