<?xml version="1.0" encoding="UTF-8" standalone="no"?>
<!-- Created with Inkscape (http://www.inkscape.org/) -->

<svg
   xmlns:dc="http://purl.org/dc/elements/1.1/"
   xmlns:cc="http://creativecommons.org/ns#"
   xmlns:rdf="http://www.w3.org/1999/02/22-rdf-syntax-ns#"
   xmlns:svg="http://www.w3.org/2000/svg"
   xmlns="http://www.w3.org/2000/svg"
   xmlns:sodipodi="http://sodipodi.sourceforge.net/DTD/sodipodi-0.dtd"
   xmlns:inkscape="http://www.inkscape.org/namespaces/inkscape"
   width="130mm"
   height="150mm"
   viewBox="0 0 130 150"
   version="1.1"
   id="svg8"
   inkscape:version="0.92.3 (2405546, 2018-03-11)"
   sodipodi:docname="mage.svg">
  <defs
     id="defs2" />
  <sodipodi:namedview
     id="base"
     pagecolor="#ffffff"
     bordercolor="#666666"
     borderopacity="1.0"
     inkscape:pageopacity="0.0"
     inkscape:pageshadow="2"
     inkscape:zoom="11.313708"
     inkscape:cx="300.65753"
     inkscape:cy="372.73219"
     inkscape:document-units="mm"
     inkscape:current-layer="layer1"
     showgrid="false"
     inkscape:window-width="1920"
     inkscape:window-height="1016"
     inkscape:window-x="1600"
     inkscape:window-y="27"
     inkscape:window-maximized="1"
     showguides="false" />
  <metadata
     id="metadata5">
    <rdf:RDF>
      <cc:Work
         rdf:about="">
        <dc:format>image/svg+xml</dc:format>
        <dc:type
           rdf:resource="http://purl.org/dc/dcmitype/StillImage" />
        <dc:title />
      </cc:Work>
    </rdf:RDF>
  </metadata>
  <g
     inkscape:label="Calque 1"
     inkscape:groupmode="layer"
     id="layer1"
     transform="translate(0,-147)">
    <path
       style="fill:#3a0088;fill-opacity:1;stroke:none;stroke-width:6.41913128;stroke-linecap:butt;stroke-linejoin:miter;stroke-miterlimit:4;stroke-dasharray:none;stroke-opacity:1"
       d="m 54.374577,199.41941 0.641456,-11.78469 -4.082187,-2.81726 2.652668,-7.48065 10.616044,-11.25448 10.34429,-16.81899 c 3.28164,8.02115 2.336196,5.86376 8.348108,17.37704 1.783965,3.41644 10.640582,9.13615 11.132019,20.31305 l -4.379178,1.72311 -1.458263,12.46608 -8.133449,2.3883 0.617548,4.10832 6.02802,2.74962 0.621372,1.30881 11.792535,71.93587 c -0.367747,3.00675 -4.492441,5.87037 -10.612083,7.67265 -9.268681,2.72969 -23.083413,3.26679 -35.113095,0.0953 -6.46338,-1.70401 -12.403405,-4.29574 -16.879557,-8.61547 3.161646,-21.76323 10.553562,-41.65407 16.191188,-62.05517 l -14.230222,0.64071 -1.633561,61.44954 c -0.551142,0.90779 -1.803772,0.35899 -2.649607,0.14695 l 2.252374,-91.22684 3.008058,0.27767 -0.816335,25.41626 14.929175,-0.34753 2.505241,-7.79189 6.223807,-2.36728 -0.138177,-4.81008 c -3.970889,0.0467 -4.973958,-1.80123 -7.778189,-2.69893 z"
       id="rect837"
       inkscape:connector-curvature="0"
       sodipodi:nodetypes="ccccccsccccccccsscccccccccccccc" />
    <path
       style="fill:#ffbd39;fill-opacity:1;stroke:none;stroke-width:0.22048023;stroke-linecap:butt;stroke-linejoin:miter;stroke-miterlimit:4;stroke-dasharray:none;stroke-opacity:1"
       d="m 36.168194,178.35779 5.161458,0.23151 c 0.09373,0.004 4.123556,5.87869 4.071991,5.95715 l -1.5875,2.41546 c -0.05151,0.0784 -3.515437,4.74099 -3.60897,4.73344 L 34.87835,191.2654 c -0.09354,-0.008 -3.486357,-5.67512 -3.443606,-5.7587 l 2.182813,-4.26754 c 0.04276,-0.0836 2.456894,-2.88557 2.550637,-2.88137 z"
       id="rect835"
       inkscape:connector-curvature="0"
       sodipodi:nodetypes="sssssssss" />
    <path
       style="fill:#ffbd39;fill-opacity:1;stroke:none;stroke-width:1;stroke-linecap:butt;stroke-linejoin:miter;stroke-miterlimit:4;stroke-dasharray:none;stroke-opacity:1"
       d="m 69.180864,192.36401 c -0.05357,-0.0788 3.778642,-0.28564 5.654927,-0.24396 2.107948,0.0468 3.638593,0.3479 5.786635,0.034 1.751093,-0.25588 3.335372,-0.63525 5.315756,-0.5501 -0.284007,1.35864 -1.243496,2.29249 -2.209985,3.27886 -1.851813,0.65582 -3.475297,0.32558 -5.20245,-1.6988 -2.051734,2.3011 -4.462598,2.58209 -7.01089,2.09006 z"
       id="rect859"
       inkscape:connector-curvature="0"
       sodipodi:nodetypes="cssccccc" />
    <path
       style="fill:#000000;stroke-width:0.27778766"
       d="m 65.534209,293.5144 c -11.556324,-0.92944 -22.10197,-4.42148 -26.59522,-8.80664 -1.356499,-1.32387 -1.806322,-1.61843 -2.069518,-1.35524 -0.446146,0.44614 -1.937004,0.42879 -2.564236,-0.0298 -0.481698,-0.35222 -0.457343,-1.93892 0.640667,-41.73759 0.627771,-22.75429 1.220983,-43.27776 1.318249,-45.60771 l 0.0833,-4.01409 -0.589747,-0.22217 c -0.351683,-0.13249 -0.93993,-0.28126 -1.2536,-0.62503 -0.931499,-1.02085 -3.415563,-5.21119 -3.415563,-5.76165 0,-0.62133 3.393027,-6.06229 4.202359,-6.73879 0.462196,-0.38634 1.074215,-0.48044 2.981448,-0.45843 1.319927,0.0152 2.712377,0.11417 3.094336,0.2199 0.491815,0.13612 1.195681,0.99945 2.412063,2.95852 0.944677,1.52148 1.725955,2.98411 1.736172,3.25031 0.01872,0.48751 -2.952637,5.38834 -3.944954,6.50664 -0.293564,0.33084 -0.812262,0.67142 -1.152661,0.75686 l -0.618907,0.15533 -0.358221,12.66148 c -0.197021,6.96382 -0.312924,12.69414 -0.25756,12.73404 0.29394,0.21186 13.99612,-0.44339 14.139995,-0.67618 0.09263,-0.1499 0.577739,-1.80099 1.078007,-3.66912 0.665312,-2.48443 1.089861,-3.56175 1.580904,-4.01165 0.705899,-0.64675 3.858461,-1.74613 5.007168,-1.74613 0.801259,0 0.846314,-0.11708 1.031587,-2.68098 l 0.143552,-1.9865 -1.023241,-0.18383 c -2.453335,-0.44073 -4.833097,-1.32942 -5.775339,-2.15673 l -0.990674,-0.86981 0.170101,-4.18637 c 0.09356,-2.30249 0.23788,-4.95404 0.320727,-5.89234 l 0.150628,-1.70598 -1.312018,-0.50107 c -1.722336,-0.65777 -2.89255,-1.66278 -2.89255,-2.48422 0,-0.91068 1.257594,-4.33902 2.442592,-6.65876 0.781808,-1.53046 1.738993,-2.6839 4.495209,-5.41686 1.926038,-1.9098 4.258288,-4.35885 5.182773,-5.44236 3.545972,-4.15592 7.186291,-9.78589 9.998371,-15.46309 0.738385,-1.4907 1.458407,-2.67174 1.600051,-2.62452 0.141642,0.0472 0.79817,1.51689 1.458952,3.26594 3.103621,8.21511 7.429939,15.36603 12.795484,21.14954 2.446568,2.63715 3.346452,4.05338 4.356691,6.85653 0.746868,2.07238 1.369809,5.59667 1.109262,6.27566 -0.209161,0.54507 -1.386275,1.17624 -3.195786,1.71361 -1.183779,0.35154 -1.354323,0.49625 -1.361245,1.15505 -0.0044,0.41424 -0.183007,3.04292 -0.397012,5.84153 -0.276518,3.61609 -0.515024,5.28054 -0.824309,5.75257 -0.507596,0.77469 -3.093755,1.66277 -5.701195,1.95776 -2.054012,0.23238 -2.296095,0.55823 -2.18021,2.93459 l 0.08254,1.69262 2.095531,0.60332 c 2.435733,0.70128 3.762272,1.41424 4.44344,2.38815 0.357466,0.5111 1.993463,9.86328 6.195739,35.41793 3.14051,19.09791 5.787095,35.47349 5.881298,36.39018 0.164328,1.59906 0.126458,1.736 -0.932822,3.37304 -0.84793,1.31042 -1.577261,2.01278 -3.143423,3.0272 -5.808758,3.76241 -17.71345,5.63778 -29.679188,4.6754 z m 17.083939,-1.1036 c 8.030901,-1.28738 13.019737,-3.56966 15.295617,-6.99738 l 1.049785,-1.5811 -0.569557,-3.61354 c -1.336355,-8.47851 -10.969127,-67.26058 -11.078681,-67.60544 -0.100308,-0.31576 -0.194143,-0.3172 -0.565906,-0.008 -2.034736,1.68868 -11.095688,2.639 -18.437321,1.93371 -4.643905,-0.44611 -9.472558,-1.50829 -11.261527,-2.47724 l -1.440259,-0.78008 -0.772853,3.01704 c -0.766885,2.99376 -0.768696,3.02179 -0.234572,3.63326 0.409314,0.4686 0.502129,0.87409 0.387395,1.69252 -0.129575,0.92429 -0.284289,1.12044 -1.095545,1.38894 l -0.944664,0.31265 -2.435233,9.16699 c -1.339379,5.04186 -4.892821,17.85482 -7.896541,28.47325 -5.179274,18.30923 -5.456343,19.41007 -5.365193,21.3167 l 0.09612,2.01044 1.661505,1.69276 c 0.928874,0.94636 2.391906,2.06524 3.317954,2.53747 0.911047,0.46459 2.09859,1.12236 2.638983,1.46171 1.586637,0.99635 8.447234,3.11763 12.649613,3.91122 8.164914,1.5419 17.406587,1.73219 25.000887,0.51479 z M 36.510825,282.786 c 0.06979,-0.19098 0.685037,-19.16041 1.367227,-42.15427 0.266309,-8.97617 0.525053,-17.5486 0.746965,-24.77597 0.346551,-11.28665 0.603277,-19.293 0.65871,-20.43397 l 0.165328,-3.40291 h -1.40238 -1.402379 l -5.84e-4,1.1806 c -3.05e-4,0.64933 -0.561255,21.03955 -1.246531,45.31159 -0.685277,24.27206 -1.177659,44.24152 -1.094182,44.37658 0.232456,0.37612 2.064054,0.29179 2.207818,-0.10163 z m 8.583207,-36.5922 c 3.890001,-13.8234 7.04905,-25.153 7.020104,-25.17688 -0.08705,-0.0718 -13.051956,0.43634 -13.120248,0.51426 -0.09053,0.10331 -1.534997,48.40634 -1.497421,50.07386 0.02863,1.27054 0.05234,1.3179 0.278065,0.55558 0.135722,-0.45835 3.429497,-12.14342 7.3195,-25.96682 z m 5.231305,-25.72886 4.097367,-0.16947 v -0.80448 -0.80449 l -1.875066,8.4e-4 c -1.031287,2.7e-4 -4.406407,0.0827 -7.500266,0.18297 l -5.6252,0.18226 v 0.94948 0.94947 l 3.402899,-0.15849 c 1.871594,-0.0871 5.246714,-0.23476 7.500266,-0.32798 z m 3.500163,-2.21191 c 0.05349,-0.0468 0.01408,-0.21974 -0.08759,-0.38425 -0.296794,-0.48022 -14.593517,0.098 -14.593517,0.59018 0,0.24434 14.397461,0.0424 14.681115,-0.20593 z m 27.681497,-4.29159 c 2.678306,-0.49866 4.537125,-1.16221 5.183674,-1.85043 0.594576,-0.6329 0.595484,-0.64876 0.07053,-1.22921 -0.292499,-0.32344 -0.969332,-0.80891 -1.504073,-1.07884 -1.329028,-0.6709 -4.149905,-1.46054 -4.600232,-1.28772 -0.216569,0.083 -0.403426,0.691 -0.453566,1.47561 -0.07785,1.21809 -0.170815,1.37613 -1.067677,1.81495 -3.297995,1.61366 -13.684747,1.15319 -16.436632,-0.72869 -0.83828,-0.57326 -0.909303,-0.73455 -0.847591,-1.92501 0.06236,-1.20318 0.01828,-1.29932 -0.595763,-1.29932 -0.927491,0 -4.064269,1.00333 -4.834811,1.54646 -2.39976,1.69151 3.018355,3.99662 11.335652,4.82267 3.222709,0.32007 11.471657,0.16381 13.750487,-0.26047 z m -5.517875,-1.68691 c 2.920075,-0.40615 3.712256,-0.83816 3.712256,-2.02448 0,-0.50704 0.0798,-2.22628 0.177353,-3.82051 l 0.177354,-2.89862 -5.524765,-0.0245 c -3.038621,-0.0134 -6.890491,-0.16499 -8.55971,-0.33674 -1.66922,-0.17173 -3.065764,-0.28143 -3.103435,-0.24376 -0.03767,0.0377 -0.109494,1.81518 -0.159614,3.95003 l -0.09112,3.88154 1.534549,0.61338 c 2.6631,1.06447 7.83962,1.45964 11.837134,0.90363 z m 6.351238,-9.69068 c 2.433348,-0.4265 4.669305,-1.11008 5.344809,-1.63403 0.541742,-0.42018 0.626753,-0.94356 1.01932,-6.27549 0.235555,-3.1994 0.399947,-5.84543 0.36531,-5.88007 -0.03464,-0.0346 -0.636317,0.0441 -1.337072,0.17506 -7.006118,1.30888 -22.747035,0.81093 -31.259175,-0.98886 l -0.865923,-0.18308 -0.175662,4.12471 c -0.283335,6.65299 -0.28439,7.17648 -0.01539,7.62086 0.494003,0.81605 4.347943,2.13513 8.034213,2.74986 4.932825,0.82261 14.974008,0.97732 18.889558,0.29104 z m -10.825503,-7.30977 c -1.099302,-0.62262 -2.369409,-2.16621 -2.369409,-2.87959 0,-0.286 0.480473,-0.36284 2.01396,-0.32208 l 2.013961,0.0535 -1.736173,0.0986 c -1.001149,0.0569 -1.736173,0.22609 -1.736173,0.39971 0,0.16559 0.546072,0.84715 1.213493,1.51457 1.12346,1.12346 1.321294,1.21349 2.666448,1.21349 1.724017,0 3.145453,-0.60971 3.903583,-1.67441 0.776152,-1.09 0.694269,-1.33263 -0.491599,-1.45668 -0.572937,-0.0599 0.208341,-0.10745 1.736173,-0.10559 1.527832,0.002 2.184106,0.0502 1.458386,0.10742 -0.725721,0.0572 -1.319492,0.2369 -1.319492,0.39929 0,0.16239 0.501562,0.79681 1.114584,1.40983 1.024025,1.02403 1.206807,1.10221 2.249608,0.96235 0.635881,-0.0853 1.44002,-0.43711 1.828578,-0.80003 0.63662,-0.59462 1.474133,-1.9113 1.474133,-2.31754 0,-0.0932 -0.906282,-0.10447 -2.01396,-0.025 l -2.013961,0.14457 2.083407,-0.34596 c 1.145875,-0.19029 2.198015,-0.25193 2.338092,-0.13698 0.406559,0.33363 -0.688464,2.4345 -1.651964,3.1694 -1.731159,1.32041 -3.871934,1.04235 -5.135771,-0.66708 l -0.615014,-0.83185 -0.802812,0.91436 c -1.633302,1.86022 -4.155886,2.33791 -6.208078,1.17559 z m -34.421229,-4.2969 c -0.07903,-0.26737 -0.226442,-1.37047 -0.327595,-2.45132 l -0.183914,-1.96521 -2.382542,-0.4593 c -1.310398,-0.25262 -2.414283,-0.42756 -2.453077,-0.38877 -0.06182,0.0618 2.845479,4.89337 3.103667,5.15791 0.09197,0.0943 1.644069,0.49976 2.160083,0.56438 0.124883,0.0157 0.162404,-0.19032 0.08337,-0.45769 z m 3.239999,0.23146 c 0.42798,-0.16273 1.137909,-1.08084 1.966198,-2.54279 0.712998,-1.25847 1.256364,-2.32811 1.20748,-2.377 -0.04888,-0.0489 -1.561794,-0.009 -3.36202,0.0865 l -3.273137,0.17541 0.174276,1.27566 c 0.09585,0.70162 0.246284,1.80693 0.334296,2.45625 0.156559,1.15507 0.182986,1.1806 1.221547,1.1806 0.583839,0 1.362951,-0.11459 1.73136,-0.25466 z m 42.562309,-2.25527 c 4.617363,-0.39047 7.796334,-1.00153 9.514226,-1.8288 1.718505,-0.82757 1.761215,-1.03899 0.894626,-4.42871 -0.850708,-3.32759 -2.215826,-5.87294 -4.483423,-8.35961 -4.256834,-4.66811 -6.911429,-8.48021 -9.514404,-13.66304 -1.788968,-3.56205 -3.589269,-7.67897 -4.179898,-9.55856 -0.276054,-0.8785 -0.578556,-1.59613 -0.672229,-1.59472 -0.09367,0.001 -0.662341,1.0785 -1.263704,2.39355 -3.395323,7.42477 -8.532324,14.64031 -14.906556,20.93806 -3.223616,3.18493 -5.528282,6.23079 -5.528734,7.30681 -7.8e-5,0.18279 -0.250087,0.98996 -0.555576,1.79371 -0.833591,2.19319 -0.749132,3.29029 0.302533,3.92985 3.944759,2.39895 19.617117,3.98277 30.393139,3.07146 z m -46.213811,-3.39305 c 0.03662,-0.60505 0.04185,-0.60374 0.16361,0.0412 l 0.12578,0.66619 3.207997,-0.17192 c 1.764399,-0.0946 3.268516,-0.23243 3.342482,-0.3064 0.07397,-0.0739 -0.431941,-1.48394 -1.124239,-3.13326 l -1.258724,-2.99877 h -1.619618 c -1.574782,0 -1.62455,0.0231 -1.797819,0.83336 l -0.178203,0.83337 -0.03286,-0.8719 c -0.02919,-0.77424 -0.146184,-0.89315 -1.044647,-1.0617 -0.693062,-0.13003 -1.116573,-0.0741 -1.344448,0.17742 -0.64288,0.70968 -3.542028,5.53419 -3.406847,5.66938 0.150455,0.15045 3.668273,0.88035 4.443585,0.92198 0.316544,0.017 0.499325,-0.19193 0.523957,-0.59892 z m 0.294113,-1.45839 c 0.0057,-0.45835 0.06792,-0.61222 0.13835,-0.34194 0.07043,0.27027 0.0658,0.64529 -0.01029,0.83336 -0.0761,0.18807 -0.13372,-0.0331 -0.128057,-0.49142 z m 0.277788,-1.94451 c 0.0057,-0.45835 0.06792,-0.61222 0.13835,-0.34194 0.07043,0.27027 0.0658,0.64529 -0.01029,0.83336 -0.0761,0.18807 -0.133719,-0.0331 -0.128058,-0.49142 z m 7.723899,2.63898 c 0,-0.21582 -2.890128,-5.17323 -3.225451,-5.5326 -0.0594,-0.0636 -0.171797,-0.052 -0.249772,0.026 -0.07798,0.078 0.445073,1.52842 1.162325,3.22324 1.153498,2.72562 1.362345,3.0503 1.808497,2.81153 0.277421,-0.14848 0.504401,-0.38617 0.504401,-0.5282 z m -4.305709,-5.84329 c -0.750048,-0.30914 -5.111458,-0.33005 -4.625659,-0.0222 0.205984,0.13055 1.456029,0.24046 2.777876,0.24425 1.51869,0.004 2.198853,-0.0774 1.847783,-0.22206 z"
       id="path833"
       inkscape:connector-curvature="0"
       sodipodi:nodetypes="ccccsscscsccccccccsccccsccccccsccssccscssccccscsccccsccccccccscccscccsccsscccccccccsssccccscccsccscsccccccccccccccscccccccccscssscccsccccccccccccsccccscscccscccsssccccscccscccscsccccccccccccccccccccsccccscssccccccccccccscsccccccccccccccccccccccccccccccc" />
  </g>
</svg>
